<svg xmlns="http://www.w3.org/2000/svg" xml:space="preserve" fill="none" viewBox="0 0 348 348"><path stroke="#000" stroke-width="2" d="M5.1 5.8H342v337.7H5.1z"/><ellipse cx="298.3" cy="40.5" stroke="#000" stroke-width="2" rx="15.9" ry="15.5"/><path stroke="#000" stroke-width="1.8" d="M55.9 113.9h45.2v43H55.9z"/><path stroke="#000" stroke-width="2.3" d="M51.1 108.1h55.7v54.7H51.1z"/><path stroke="#000" stroke-width="1.8" d="M156.4 113.9h45.2v43h-45.2z"/><path stroke="#000" stroke-width="2.3" d="M151.1 108.1h55.7v54.7h-55.7z"/><path stroke="#000" stroke-width="1.8" d="M256.4 113.9h45.2v43h-45.2z"/><path stroke="#000" stroke-width="2.3" d="M251.1 108.1h55.7v54.7h-55.7z"/><path stroke="#000" stroke-width="1.8" d="M55.9 194h45.2v43H55.9z"/><path stroke="#000" stroke-width="2.3" d="M51.1 188.1h55.7v54.7H51.1z"/><path stroke="#000" stroke-width="1.8" d="M156.4 194h45.2v43h-45.2z"/><path stroke="#000" stroke-width="2.3" d="M151.1 188.1h55.7v54.7h-55.7z"/><path stroke="#000" stroke-width="1.8" d="M256.4 194h45.2v43h-45.2z"/><path stroke="#000" stroke-width="2.3" d="M251.1 188.1h55.7v54.7h-55.7z"/><path stroke="#000" stroke-width="1.8" d="M55.9 269.1h45.2v43H55.9z"/><path stroke="#000" stroke-width="2.3" d="M51.1 263.1h55.7v54.7H51.1z"/><path stroke="#000" stroke-width="1.8" d="M156.4 269.1h45.2v43h-45.2z"/><path stroke="#000" stroke-width="2.3" d="M151.1 263.1h55.7v54.7h-55.7z"/><path stroke="#000" stroke-width="1.8" d="M256.4 269.1h45.2v43h-45.2z"/><path stroke="#000" stroke-width="2.3" d="M251.1 263.1h55.7v54.7h-55.7z"/></svg>